<svg width="5" height="8" fill="none" xmlns="http://www.w3.org/2000/svg"><g clip-path="url(#clip0)"><path fill="transparent" d="M-1852-42H68v6155h-1920z"/><path fill="transparent" d="M-1852-42H68v93h-1920z"/><path d="M.55 7.88a.433.433 0 01-.037-.536l.037-.047L3.634 4 .55.703A.433.433 0 01.513.167L.55.12a.366.366 0 01.501-.04l.043.04L4.45 3.709a.433.433 0 01.037.536l-.037.046-3.356 3.588a.367.367 0 01-.544 0z" fill="#3A3A3A"/></g><defs><clipPath id="clip0"><path fill="#fff" transform="translate(-1852 -42)" d="M0 0h1920v6155H0z"/></clipPath></defs></svg>