<svg width="21" height="21" fill="none" xmlns="http://www.w3.org/2000/svg"><path d="M17.244 20.64c-4.492.48-8.996.48-13.488 0A3.824 3.824 0 01.36 17.244a63.427 63.427 0 010-13.488A3.824 3.824 0 013.756.36c4.492-.48 8.996-.48 13.488 0a3.824 3.824 0 013.396 3.396c.48 4.492.48 8.996 0 13.488a3.824 3.824 0 01-3.396 3.396z" fill="url(#paint0_linear)"/><path d="M19.498 4.516a3.393 3.393 0 00-3.014-3.014 56.306 56.306 0 00-11.968 0 3.393 3.393 0 00-3.014 3.014 56.304 56.304 0 000 11.968 3.393 3.393 0 003.014 3.014c3.985.426 7.983.426 11.968 0a3.393 3.393 0 003.014-3.014 56.28 56.28 0 000-11.968z" fill="url(#paint1_linear)"/><path d="M.315 16.808l.045.436a3.824 3.824 0 003.396 3.396c4.492.48 8.996.48 13.488 0a3.824 3.824 0 003.396-3.396l.046-.436H.315z" fill="url(#paint2_linear)"/><path d="M14.118 3.497a3.313 3.313 0 00-3.313 3.313v2.475H9.022v3.064l1.783 1.597v7.053c2.148-.01 4.295-.13 6.439-.359a3.824 3.824 0 003.396-3.396c.357-3.342.448-6.691.274-10.037l-3.71-3.71h-3.086z" fill="url(#paint3_linear)"/><path d="M10.805 20.999a63.421 63.421 0 003.67-.124v-8.526h2.435l.294-3.064h-2.729V7.339c0-.43.349-.778.778-.778h1.951V3.497h-3.086a3.313 3.313 0 00-3.313 3.313v2.475H9.022v3.064h1.783v8.65z" fill="#fff"/><defs><linearGradient id="paint0_linear" x1="6.972" y1="2.953" x2="12.284" y2="14.317" gradientUnits="userSpaceOnUse"><stop stop-color="#3457A0"/><stop offset="1" stop-color="#3B5998"/></linearGradient><linearGradient id="paint1_linear" x1="14.484" y1="13.237" x2="-3.874" y2=".624" gradientUnits="userSpaceOnUse"><stop stop-color="#3457A0" stop-opacity="0"/><stop offset="1" stop-color="#1F3F77"/></linearGradient><linearGradient id="paint2_linear" x1="10.5" y1="17.549" x2="10.5" y2="20.391" gradientUnits="userSpaceOnUse"><stop stop-color="#3457A0" stop-opacity="0"/><stop offset="1" stop-color="#1F3F77"/></linearGradient><linearGradient id="paint3_linear" x1="24.108" y1="17.343" x2="9.532" y2="9.993" gradientUnits="userSpaceOnUse"><stop stop-color="#3457A0" stop-opacity="0"/><stop offset=".325" stop-color="#2A4C8D" stop-opacity=".325"/><stop offset=".705" stop-color="#22427D" stop-opacity=".706"/><stop offset="1" stop-color="#1F3F77"/></linearGradient></defs></svg>