<svg width="21" height="21" fill="none" xmlns="http://www.w3.org/2000/svg"><path d="M20.64 3.756A3.824 3.824 0 0017.244.36a63.428 63.428 0 00-13.488 0A3.824 3.824 0 00.36 3.756a63.427 63.427 0 000 13.488 3.824 3.824 0 003.396 3.396c4.492.48 8.996.48 13.488 0a3.824 3.824 0 003.396-3.396c.48-4.492.48-8.996 0-13.488z" fill="url(#paint0_radial)"/><path d="M19.498 4.516a3.393 3.393 0 00-3.014-3.014 56.306 56.306 0 00-11.968 0 3.393 3.393 0 00-3.014 3.014 56.304 56.304 0 000 11.968 3.393 3.393 0 003.014 3.014c3.985.426 7.983.426 11.968 0a3.393 3.393 0 003.014-3.014 56.28 56.28 0 000-11.968z" fill="url(#paint1_linear)"/><path d="M.315 16.808l.045.436a3.824 3.824 0 003.396 3.396c4.492.48 8.996.48 13.488 0a3.824 3.824 0 003.396-3.396l.046-.436H.315z" fill="url(#paint2_linear)"/><path d="M20.64 17.244c.258-2.414.377-4.83.358-7.248l-4.8-4.8c-.6-.685-1.476-1.112-2.505-1.149a90.432 90.432 0 00-6.357 0c-1.758.061-2.988 1.243-3.303 2.98-.056.306-.09.617-.133.926v5.092c.024.165.06.33.071.495.07 1.057.505 1.962 1.2 2.574l4.885 4.884a63.455 63.455 0 007.188-.358 3.824 3.824 0 003.396-3.396z" fill="url(#paint3_linear)"/><path d="M20.64 17.244a3.824 3.824 0 01-3.396 3.397 63.522 63.522 0 01-7.188.358L5.178 16.12c.566.495 1.303.796 2.158.829 2.117.08 4.24.077 6.357 0 1.914-.069 3.3-1.485 3.36-3.4a97.32 97.32 0 000-6.102c-.028-.883-.338-1.66-.852-2.249l4.797 4.798a63.45 63.45 0 01-.358 7.247z" fill="url(#paint4_linear)"/><path d="M12.978 8.226a3.364 3.364 0 10-4.752 4.752l7.782 7.782c.412-.036.824-.076 1.236-.12a3.824 3.824 0 003.396-3.396c.044-.412.084-.824.12-1.236l-7.782-7.782z" fill="url(#paint5_linear)"/><path d="M20.96 12.762L14.695 6.5a.798.798 0 00-1.436.484c0 .26.124.49.316.636l7.271 7.272c.05-.71.087-1.42.112-2.129z" fill="url(#paint6_linear)"/><path d="M3.9 7.953c.044-.309.077-.62.133-.926.315-1.737 1.545-2.919 3.303-2.98a90.432 90.432 0 016.357 0c1.913.07 3.3 1.486 3.36 3.4a97.63 97.63 0 010 6.103c-.06 1.915-1.446 3.331-3.36 3.4-2.117.077-4.24.079-6.357 0-1.914-.073-3.237-1.493-3.365-3.41-.011-.166-.047-.33-.07-.495V7.953zm6.602 7.863c.968 0 1.938.029 2.905-.007 1.517-.056 2.45-.961 2.486-2.477.043-1.888.043-3.778 0-5.667-.036-1.515-.97-2.441-2.486-2.473a137.26 137.26 0 00-5.775 0c-1.504.031-2.44.939-2.48 2.437a105.783 105.783 0 000 5.74c.04 1.498.976 2.385 2.48 2.44.956.036 1.913.007 2.87.007z" fill="url(#paint7_linear)"/><path d="M3.9 7.953c.044-.309.077-.62.133-.926.315-1.737 1.545-2.919 3.303-2.98a90.432 90.432 0 016.357 0c1.913.07 3.3 1.486 3.36 3.4a97.63 97.63 0 010 6.103c-.06 1.915-1.446 3.331-3.36 3.4-2.117.077-4.24.079-6.357 0-1.914-.073-3.237-1.493-3.365-3.41-.011-.166-.047-.33-.07-.495V7.953zm6.602 7.863c.968 0 1.938.029 2.905-.007 1.517-.056 2.45-.961 2.486-2.477.043-1.888.043-3.778 0-5.667-.036-1.515-.97-2.441-2.486-2.473a137.26 137.26 0 00-5.775 0c-1.504.031-2.44.939-2.48 2.437a105.783 105.783 0 000 5.74c.04 1.498.976 2.385 2.48 2.44.956.036 1.913.007 2.87.007z" fill="#fff"/><path d="M10.5 7.136a3.364 3.364 0 100 6.728 3.364 3.364 0 000-6.728zm0 5.57a2.206 2.206 0 110-4.412 2.206 2.206 0 010 4.412zm4.36-5.723a.8.8 0 11-1.6 0 .8.8 0 011.6 0z" fill="#fff"/><defs><linearGradient id="paint1_linear" x1="8.054" y1="9.124" x2="-27.522" y2="-10.887" gradientUnits="userSpaceOnUse"><stop stop-color="#A1B5D8" stop-opacity="0"/><stop offset=".309" stop-color="#90A2BD" stop-opacity=".31"/><stop offset=".755" stop-color="#7C8B9C" stop-opacity=".757"/><stop offset="1" stop-color="#748290"/></linearGradient><linearGradient id="paint2_linear" x1="10.5" y1="18.538" x2="10.5" y2="21.811" gradientUnits="userSpaceOnUse"><stop stop-color="#FAE100" stop-opacity="0"/><stop offset=".307" stop-color="#FCA800" stop-opacity=".306"/><stop offset=".627" stop-color="#FE7300" stop-opacity=".627"/><stop offset=".869" stop-color="#FF5200" stop-opacity=".867"/><stop offset="1" stop-color="#FF4500"/></linearGradient><linearGradient id="paint3_linear" x1="9.305" y1="9.276" x2="4.108" y2="4.078" gradientUnits="userSpaceOnUse"><stop stop-color="#833AB4" stop-opacity="0"/><stop offset="1" stop-color="#833AB4"/></linearGradient><linearGradient id="paint4_linear" x1="14.392" y1="19.207" x2="11.798" y2="6.978" gradientUnits="userSpaceOnUse"><stop stop-color="#833AB4" stop-opacity="0"/><stop offset="1" stop-color="#833AB4"/></linearGradient><linearGradient id="paint5_linear" x1="15.379" y1="15.38" x2="4.96" y2="4.961" gradientUnits="userSpaceOnUse"><stop stop-color="#833AB4" stop-opacity="0"/><stop offset="1" stop-color="#833AB4"/></linearGradient><linearGradient id="paint6_linear" x1="16.152" y1="9.075" x2="12.707" y2="5.63" gradientUnits="userSpaceOnUse"><stop stop-color="#833AB4" stop-opacity="0"/><stop offset="1" stop-color="#833AB4"/></linearGradient><linearGradient id="paint7_linear" x1="14.67" y1="6.359" x2="6.175" y2="14.854" gradientUnits="userSpaceOnUse"><stop stop-color="#833AB4"/><stop offset=".092" stop-color="#9C3495"/><stop offset=".293" stop-color="#DC2546"/><stop offset=".392" stop-color="#FD1D1D"/><stop offset=".559" stop-color="#FC6831"/><stop offset=".689" stop-color="#FC9B40"/><stop offset=".752" stop-color="#FCAF45"/><stop offset=".781" stop-color="#FDB750"/><stop offset=".866" stop-color="#FECB6A"/><stop offset=".942" stop-color="#FFD87A"/><stop offset="1" stop-color="#FFDC80"/></linearGradient><radialGradient id="paint0_radial" cx="0" cy="0" r="1" gradientUnits="userSpaceOnUse" gradientTransform="translate(4.305 18.352) scale(23.1593)"><stop stop-color="#FAE100"/><stop offset=".054" stop-color="#FADC04"/><stop offset=".117" stop-color="#FBCE0E"/><stop offset=".183" stop-color="#FCB720"/><stop offset=".251" stop-color="#FE9838"/><stop offset=".305" stop-color="#FF7950"/><stop offset=".492" stop-color="#FF1C74"/><stop offset="1" stop-color="#6C1CD1"/></radialGradient></defs></svg>