<svg width="21" height="21" fill="none" xmlns="http://www.w3.org/2000/svg"><path d="M17.244 20.64c-4.492.48-8.996.48-13.488 0A3.824 3.824 0 01.36 17.244a63.427 63.427 0 010-13.488A3.824 3.824 0 013.756.36c4.492-.48 8.996-.48 13.488 0a3.824 3.824 0 013.396 3.396c.48 4.492.48 8.996 0 13.488a3.824 3.824 0 01-3.396 3.396z" fill="url(#paint0_linear)"/><path d="M19.498 4.516a3.393 3.393 0 00-3.014-3.014 56.306 56.306 0 00-11.968 0 3.393 3.393 0 00-3.014 3.014 56.304 56.304 0 000 11.968 3.393 3.393 0 003.014 3.014c3.985.426 7.983.426 11.968 0a3.393 3.393 0 003.014-3.014 56.28 56.28 0 000-11.968z" fill="url(#paint1_linear)"/><path d="M.315 16.808l.045.436a3.824 3.824 0 003.396 3.396c4.492.48 8.996.48 13.488 0a3.824 3.824 0 003.396-3.396l.046-.436H.315z" fill="url(#paint2_linear)"/><path d="M20.414 18.193L6.862 4.641a1.655 1.655 0 10-2.32 2.32l13.505 13.505a3.828 3.828 0 002.367-2.273z" fill="url(#paint3_linear)"/><path d="M6.938 8.388H4.157v8.62l3.946 3.946c3.047.116 6.097.011 9.14-.314a3.812 3.812 0 001.475-.473L6.938 8.388z" fill="url(#paint4_linear)"/><path d="M16.382 9.11a2.774 2.774 0 00-2.055-.908c-1.288 0-2.119.453-2.613.873l-.545-.687H8.606v8.62l3.958 3.958a63.61 63.61 0 004.68-.326 3.824 3.824 0 003.396-3.396 63.65 63.65 0 00.281-3.595L16.382 9.11z" fill="url(#paint5_linear)"/><path d="M4.157 8.388h2.78v8.62h-2.78v-8.62zm10.17-.186c-2.038 0-2.933 1.133-3.158 1.478V8.388H8.606v8.62h2.781v-4.33c0-1.25.576-2.224 1.669-2.224 1.092 0 1.271 1.211 1.271 2.701v3.854h2.78v-6.026a2.78 2.78 0 00-2.78-2.78zM7.203 5.647a1.655 1.655 0 11-3.31 0 1.655 1.655 0 013.31 0z" fill="#fff"/><defs><linearGradient id="paint0_linear" x1="6.972" y1="2.953" x2="12.284" y2="14.317" gradientUnits="userSpaceOnUse"><stop stop-color="#0077B5"/><stop offset="1" stop-color="#0066B2"/></linearGradient><linearGradient id="paint1_linear" x1="14.941" y1="12.882" x2="-15.569" y2="-3.484" gradientUnits="userSpaceOnUse"><stop stop-color="#0066B2" stop-opacity="0"/><stop offset="1" stop-color="#07485E"/></linearGradient><linearGradient id="paint2_linear" x1="10.5" y1="17.055" x2="10.5" y2="21.444" gradientUnits="userSpaceOnUse"><stop stop-color="#0066B2" stop-opacity="0"/><stop offset="1" stop-color="#07485E"/></linearGradient><linearGradient id="paint3_linear" x1="11.13" y1="11.229" x2="3.278" y2="3.377" gradientUnits="userSpaceOnUse"><stop stop-color="#0066B2" stop-opacity="0"/><stop offset="1" stop-color="#07485E"/></linearGradient><linearGradient id="paint4_linear" x1="15.74" y1="18.524" x2="-.072" y2="11.112" gradientUnits="userSpaceOnUse"><stop stop-color="#0066B2" stop-opacity="0"/><stop offset="1" stop-color="#07485E"/></linearGradient><linearGradient id="paint5_linear" x1="19.586" y1="20.149" x2="8.571" y2="9.134" gradientUnits="userSpaceOnUse"><stop stop-color="#0066B2" stop-opacity="0"/><stop offset="1" stop-color="#07485E"/></linearGradient></defs></svg>