<svg width="50" height="50" fill="none" xmlns="http://www.w3.org/2000/svg"><g clip-path="url(#clip0)"><path fill="transparent" d="M-59-21h1920v6155H-59z"/><path fill="transparent" d="M-59-21h1920v93H-59z"/><g filter="url(#filter0_d)"><rect width="50" height="50" rx="5" fill="#DF1B05"/></g><path d="M22.202 11.111c1.038 0 1.974.22 2.808.66a4.971 4.971 0 011.964 1.826c.475.777.713 1.652.713 2.626s-.238 1.849-.713 2.626a4.972 4.972 0 01-1.964 1.826c-.834.44-1.77.66-2.808.66a6.182 6.182 0 01-2.517-.506 5.123 5.123 0 01-1.892-1.418 4.842 4.842 0 01-.99-2.093h-1.061v3.82h-2.838v-9.83h2.838v3.68h1.09a4.712 4.712 0 011.034-2.023 5.017 5.017 0 011.877-1.362c.747-.328 1.566-.492 2.459-.492zm0 7.92a2.49 2.49 0 001.31-.35 2.48 2.48 0 00.916-.984c.233-.42.349-.912.349-1.474 0-.562-.116-1.053-.35-1.475a2.47 2.47 0 00-.916-.983 2.485 2.485 0 00-1.31-.35c-.484 0-.926.116-1.323.35a2.45 2.45 0 00-.931.983c-.224.422-.335.913-.335 1.475s.111 1.058.335 1.489c.232.42.543.748.93.983.398.224.84.337 1.325.337zm14.492-5.519h-4.612v7.626h-2.838v-9.83h7.465l-.015 2.204zM17.866 38.889c-1.067 0-2.027-.216-2.881-.646a5.052 5.052 0 01-1.993-1.826c-.485-.777-.728-1.657-.728-2.64 0-.983.243-1.863.728-2.64a4.952 4.952 0 011.993-1.812c.854-.44 1.814-.66 2.88-.66.932 0 1.771.16 2.518.478a4.826 4.826 0 011.862 1.376l-1.833 1.601c-.66-.768-1.46-1.152-2.4-1.152a3.09 3.09 0 00-1.485.352 2.528 2.528 0 00-1.004.997c-.232.42-.349.908-.349 1.46 0 .553.117 1.044.35 1.475.242.42.577.749 1.003.983.437.234.931.35 1.484.35.941 0 1.742-.383 2.401-1.15l1.833 1.6a4.827 4.827 0 01-1.862 1.376c-.747.319-1.586.478-2.517.478zm14.862-.197l-.015-5.21-2.619 4.241h-1.28l-2.62-4.129v5.098h-2.647v-9.83h2.371l3.58 5.673 3.492-5.673h2.371l.03 9.83h-2.663z" fill="#fff"/></g><defs><clipPath id="clip0"><path fill="#fff" transform="translate(-59 -21)" d="M0 0h1920v6155H0z"/></clipPath><filter id="filter0_d" x="-25" y="-25" width="100" height="100" filterUnits="userSpaceOnUse" color-interpolation-filters="sRGB"><feFlood flood-opacity="0" result="BackgroundImageFix"/><feColorMatrix in="SourceAlpha" values="0 0 0 0 0 0 0 0 0 0 0 0 0 0 0 0 0 0 127 0"/><feOffset/><feGaussianBlur stdDeviation="12.5"/><feColorMatrix values="0 0 0 0 0 0 0 0 0 0 0 0 0 0 0 0 0 0 0.05 0"/><feBlend in2="BackgroundImageFix" result="effect1_dropShadow"/><feBlend in="SourceGraphic" in2="effect1_dropShadow" result="shape"/></filter></defs></svg>