<svg version="1.0" xmlns="http://www.w3.org/2000/svg" width="1706.667" height="1286.667" viewBox="0 0 1280 965"><path d="M0 482.5V965h1280V0H0v482.5zm1134.6-393c.4 1.1-55.8 58.2-183.8 186.8-296.6 297.9-272.5 274-279.3 277.5-20.8 10.6-47.9 8.7-65.2-4.6-4.4-3.4-417.6-420.5-450.2-454.5-2.4-2.5-4-5-3.7-5.6.5-.8 137.4-1.1 491.2-1.1 436.9 0 490.5.2 491 1.5zM252 316.5c88.5 89.6 161 163.5 161 164.1 0 1-316.8 325.6-321.3 329.2-.9.8-2.1 1.1-2.7.7-1.1-.7-1.5-653-.4-656 .4-.9 1-1.5 1.5-1.3.4.2 73.3 73.6 161.9 163.3zM1191.7 485c.2 205.6-.1 324-.7 325-.8 1.2-2.5 0-8.8-6.5-80.8-81.9-312.2-320-312-321 .5-2.4 318.2-321.4 319.8-321.2 1.3.2 1.5 37 1.7 323.7zM511 578.6c19 19 37.9 37.2 42 40.3 26.3 20.2 59 30.1 94.8 28.8 23.2-.8 43.4-5.9 62.5-15.6 18.2-9.3 23.9-14 60.8-51.3 21.1-21.3 35.2-34.9 36.2-34.6 2.1.5 321.8 327.9 321.4 329.2-.3.8-137.3 1.1-488.3 1.1-443.7 0-487.9-.1-487.9-1.6 0-1.7 321.3-330.9 323-330.9.6 0 16.5 15.6 35.5 34.6z" fill="#DF1B05"/></svg>