<svg width="54" height="26" fill="none" xmlns="http://www.w3.org/2000/svg"><path fill-rule="evenodd" clip-rule="evenodd" d="M25.857 9.849a3.962 3.962 0 00-.88-.536 2.012 2.012 0 00-.743-.14c-.827 0-1.516.442-2.072 1.326a5.303 5.303 0 00-.827 2.867c-.019.38.095.755.323 1.06a.985.985 0 00.795.408 1.728 1.728 0 001.028-.366 5.256 5.256 0 001.332-1.702c.474-.923.823-1.904 1.037-2.917h.007zm.776-1.562l.598-.817h2.181l-1.441 6.316a5.492 5.492 0 00-.143.827.345.345 0 00.126.279.44.44 0 00.324.109 1.3 1.3 0 00.527-.16 3.18 3.18 0 00.698-.498l1.089 1.241a5.95 5.95 0 01-1.68 1.16 4.175 4.175 0 01-1.675.353 2.725 2.725 0 01-1.09-.211 2.336 2.336 0 01-.82-.587 2.035 2.035 0 01-.469-.856 4.589 4.589 0 01-1.005.9 4.47 4.47 0 01-1.125.578 3.906 3.906 0 01-1.212.176 3.253 3.253 0 01-1.773-.454 3.215 3.215 0 01-1.24-1.338 4.417 4.417 0 01-.439-2.036 5.814 5.814 0 01.445-2.29 5.852 5.852 0 011.31-1.935 5.471 5.471 0 011.821-1.312 5.51 5.51 0 012.2-.474c.497-.007.991.072 1.46.234.495.193.953.468 1.355.811l-.023-.016zM5.026 7.242L4.59 9.166a7.02 7.02 0 011.157-1.16c.32-.24.674-.43 1.05-.565.35-.126.72-.192 1.093-.196A2.8 2.8 0 019 7.47c.314.127.596.322.825.57.226.277.387.6.471.946.272-.367.6-.692.97-.961a4.21 4.21 0 011.122-.59 3.6 3.6 0 011.173-.196 2.51 2.51 0 011.787.641 2.093 2.093 0 01.692 1.603c0 .212 0 .407-.03.596 0 .093-.057.302-.132.642l-.688 3.122c-.06.223-.097.45-.113.68a.448.448 0 00.12.343.448.448 0 00.322.119.92.92 0 00.411-.122c.292-.147.565-.326.815-.536l1.06 1.215c-1.106 1.026-2.243 1.54-3.404 1.54a2.427 2.427 0 01-1.703-.6 1.848 1.848 0 01-.646-1.414 4.91 4.91 0 01.132-1.052l.711-3.17a3.85 3.85 0 00.123-.715.602.602 0 00-.372-.576.593.593 0 00-.232-.043c-.307.014-.6.133-.828.337a4.78 4.78 0 00-1.244 1.747 19.761 19.761 0 00-1.1 3.549l-.406 1.712H5.85l1.332-5.819c.073-.298.126-.601.158-.907a.586.586 0 00-.39-.609.6.6 0 00-.256-.032 1.087 1.087 0 00-.36.064 1.984 1.984 0 00-.53.32 3.929 3.929 0 00-.626.718c-.28.407-.527.836-.737 1.283a7.94 7.94 0 00-.533 1.36l-.579 2.182-.323 1.44H0l1.584-6.999H.116l.427-1.814a12.002 12.002 0 003.63-.802h.853zM35.876 0H34.84c-.808 0-1.702.031-2.683.093-1.256.066-2.019.1-2.288.1-.692 0-1.445-.033-2.246-.1A48.08 48.08 0 0026.367 0h-.277a.748.748 0 00-.398.106.495.495 0 00-.136.413.407.407 0 00.136.321c.207.18 1.08.366 1.364.4 2.375.286 4.399.071 6.548 0 2.21-.067 3.94.53 5.172 1.604 1.231 1.074 1.861 2.53 1.861 4.408 0 1.817-.521 3.136-1.564 3.96-1.043.822-2.736 1.23-5.078 1.224h-.368c-.398 0-.734 0-1.005-.035-.388.397-.388.825 0 1.282.244-.026.49-.039.736-.038 1.17 0 1.972.109 2.415.32.512.276.938.688 1.228 1.19l3.879 6.09c1.226 1.912 2.283 3.178 3.17 3.8a5.296 5.296 0 003.135.93h.04a6.15 6.15 0 001.615-.142.533.533 0 00.417-.506c0-.196-.216-.32-.646-.417a4.032 4.032 0 01-1.031-.32c-.934-.478-2.282-2.05-4.04-4.739a10.796 10.796 0 01-.475-.702l-4.28-6.453a8.275 8.275 0 003.442-2.665 6.287 6.287 0 001.219-3.767c0-1.964-.7-3.498-2.101-4.603C40.011.607 38.188.054 35.876 0zm13.158 4.26h1.94l-.737 3.207h2.77l-.453 1.83h-2.78l-.937 4.133c-.07.278-.115.563-.133.85a.682.682 0 00.181.512.647.647 0 00.482.177 1.85 1.85 0 00.902-.321c.466-.31.884-.686 1.241-1.116l1.254 1.08a8.93 8.93 0 01-2.188 1.985 4.028 4.028 0 01-1.975.51 2.972 2.972 0 01-2.094-.74 2.247 2.247 0 01-.818-1.703 6.74 6.74 0 01.187-1.356l.912-4.01h-1.47l.39-1.572c.504-.128.98-.346 1.406-.64.422-.322.788-.71 1.083-1.149a6.33 6.33 0 00.828-1.657l.01-.02z" fill="#E30613"/></svg>