<svg width="22" height="22" fill="none" xmlns="http://www.w3.org/2000/svg"><g clip-path="url(#clip0)"><path fill="transparent" d="M-1268-36H652v6155h-1920z"/><path fill="transparent" d="M-1268-36H652v93h-1920z"/><g clip-path="url(#clip1)"><path d="M21.573 17.494l-2.44-1.627-2.167-1.445a.96.96 0 00-1.29.21l-1.342 1.724a.956.956 0 01-1.22.253c-.91-.506-1.986-.983-4.362-3.361-2.375-2.378-2.855-3.452-3.36-4.362a.955.955 0 01.252-1.22L7.37 6.325a.96.96 0 00.21-1.29L6.176 2.934 4.507.428A.96.96 0 003.214.137L1.287 1.293c-.52.306-.903.802-1.069 1.383-.526 1.92-.633 6.158 6.158 12.949 6.79 6.79 11.028 6.684 12.949 6.157a2.353 2.353 0 001.383-1.069l1.156-1.926a.96.96 0 00-.291-1.293z" fill="#DF1B05"/></g></g><defs><clipPath id="clip0"><path fill="#fff" transform="translate(-1268 -36)" d="M0 0h1920v6155H0z"/></clipPath><clipPath id="clip1"><path fill="#fff" d="M0 0h22v22H0z"/></clipPath></defs></svg>